<mxfile host="app.diagrams.net" agent="Mozilla/5.0 (Windows NT 10.0; Win64; x64) AppleWebKit/537.36 (KHTML, like Gecko) Chrome/136.0.0.0 Safari/537.36" version="27.0.3">
  <diagram id="W5Fv9lMaPN0TBW7jJIKl" name="Página-1">
    <mxGraphModel dx="1042" dy="562" grid="0" gridSize="10" guides="1" tooltips="1" connect="1" arrows="1" fold="1" page="0" pageScale="1" pageWidth="827" pageHeight="1169" math="0" shadow="0">
      <root>
        <mxCell id="0" />
        <mxCell id="1" parent="0" />
        <mxCell id="aws_region" value="AWS Region (Ex: us-east-1)" style="shape=swimlane;startSize=30;collapsible=0;rounded=0;fontSize=14;fontStyle=1;horizontal=1;fillColor=#f5f5f5;strokeColor=#666666;align=center;" parent="1" vertex="1">
          <mxGeometry x="20" y="20" width="780" height="520" as="geometry" />
        </mxCell>
        <mxCell id="vpc" value="VPC (Ex: 10.0.0.0/16)" style="rounded=1;whiteSpace=wrap;html=1;arcSize=10;fillColor=#dae8fc;strokeColor=#6c8ebf;fontSize=12;fontStyle=1;align=center;verticalAlign=top;" parent="aws_region" vertex="1">
          <mxGeometry x="30" y="50" width="450" height="420" as="geometry" />
        </mxCell>
        <mxCell id="az" value="Availability Zone (Ex: us-east-1a)" style="rounded=1;whiteSpace=wrap;html=1;arcSize=10;dashed=1;dashPattern=8 4;fillColor=#e1d5e7;strokeColor=#9673a6;fontSize=12;align=center;verticalAlign=top;" parent="vpc" vertex="1">
          <mxGeometry x="20" y="50" width="410" height="340" as="geometry" />
        </mxCell>
        <mxCell id="subnet_private" value="Subnet Privada (Ex: 10.0.1.0/24)" style="rounded=1;whiteSpace=wrap;html=1;arcSize=10;fillColor=#d5e8d4;strokeColor=#82b366;fontSize=12;align=center;verticalAlign=top;" parent="az" vertex="1">
          <mxGeometry x="20" y="50" width="370" height="220" as="geometry" />
        </mxCell>
        <mxCell id="ecs_worker" value="ECS Worker (Tarefa/Serviço)" style="shape=module;align=center;verticalAlign=middle;whiteSpace=wrap;html=1;fillColor=#ffe6cc;strokeColor=#d79b00;fontSize=12;" parent="subnet_private" vertex="1">
          <mxGeometry x="125" y="80" width="120" height="80" as="geometry" />
        </mxCell>
        <mxCell id="dynamodb" value="DynamoDB Table" style="shape=cylinder3;whiteSpace=wrap;html=1;boundedLbl=1;backgroundOutline=1;size=15;fillColor=#fff2cc;strokeColor=#d6b656;fontSize=12;align=center;" parent="aws_region" vertex="1">
          <mxGeometry x="580" y="180" width="120" height="150" as="geometry" />
        </mxCell>
        <mxCell id="edge_ecs_to_dynamo" style="edgeStyle=orthogonalEdgeStyle;rounded=0;orthogonalLoop=1;jettySize=auto;html=1;strokeColor=#505050;endArrow=classic;endFill=1;fontSize=10;" parent="1" source="ecs_worker" target="dynamodb" edge="1">
          <mxGeometry relative="1" as="geometry">
            <Array as="points">
              <mxPoint x="380" y="270" />
              <mxPoint x="540" y="270" />
            </Array>
          </mxGeometry>
        </mxCell>
      </root>
    </mxGraphModel>
  </diagram>
</mxfile>
